# AST/ASF file generated using VICON BodyLanguage
# -----------------------------------------------
:version 1.10
:name VICON
:units
  mass 1.0
  length 0.45
  angle deg
:documentation
   .ast/.asf automatically generated from VICON data using
   VICON BodyBuilder and BodyLanguage model FoxedUp or BRILLIANT.MOD
:root
   order TX TY TZ RX RY RZ
   axis XYZ
   position 0 0 0  
   orientation 0 0 0 
:bonedata
  begin
     id 1 
     name lhipjoint
     direction 0.78388 -0.462562 0.414208 
     length 3.01181 
     axis 0 0 0  XYZ
  end
  begin
     id 2 
     name lfemur
     direction 0.34202 -0.939693 0  
     length 6.04673  
     axis 0 0 20  XYZ
    dof rx ry rz
    limits (-160.0 20.0)
           (-70.0 70.0)
           (-60.0 70.0)
  end
  begin
     id 3 
     name ltibia
     direction 0.34202 -0.939693 0   
     length 7.211   
     axis 0 0 20   XYZ
    dof rx
    limits (-10.0 170.0)
  end
  begin
     id 4 
     name lfoot
     direction 0.121887 -0.334882 0.934344   
     length 2.13567   
     axis -90 7.62852e-016 20   XYZ
    dof rx rz
    limits (-45.0 90.0)
           (-70.0 20.0)
  end
  begin
     id 5 
     name ltoes
     direction 1.53555e-011 -4.2179e-011 1   
     length 1.05957   
     axis -90 7.62852e-016 20   XYZ
    dof rx
    limits (-90.0 20.0)
  end
  begin
     id 6 
     name rhipjoint
     direction -0.769387 -0.475875 0.426129   
     length 2.92756  
     axis 0 0 0  XYZ 
  end
  begin
     id 7 
     name rfemur
     direction -0.34202 -0.939693 0   
     length 6.35468   
     axis 0 0 -20   XYZ
    dof rx ry rz
    limits (-160.0 20.0)
           (-70.0 70.0)
           (-70.0 60.0)
  end
  begin
     id 8 
     name rtibia
     direction -0.34202 -0.939693 0   
     length 7.37886   
     axis 0 0 -20   XYZ
    dof rx
    limits (-10.0 170.0)
 end
 begin
     id 9 
     name rfoot
     direction -0.101763 -0.279592 0.954711   
     length 2.21478  
     axis -90 -7.62852e-016 -20   XYZ
    dof rx rz
    limits (-45.0 90.0)
           (-20.0 70.0)
  end
  begin
     id 10 
     name rtoes
     direction -1.53494e-011 -4.21851e-011 1   
     length 1.10506   
     axis -90 -7.62852e-016 -20   XYZ
    dof rx
    limits (-90.0 20.0)
  end
  begin
     id 11 
     name lowerback
     direction 0.00747405 0.999267 0.0375481   
     length 2.13259   
     axis 0 0 0   XYZ
    dof rx ry rz
    limits (-20.0 45.0)
           (-30.0 30.0)
           (-30.0 30.0)
  end
  begin
     id 12 
     name upperback
     direction 0.00661626 0.996177 0.0871029   
     length 2.10528   
     axis 0 0 0   XYZ
    dof rx ry rz
    limits (-20.0 45.0)
           (-30.0 30.0)
           (-30.0 30.0)
  end
  begin
     id 13 
     name thorax
     direction 0.00320659 0.997679 0.0680167   
     length 2.11338   
     axis 0 0 0   XYZ
    dof rx ry rz
    limits (-20.0 45.0)
           (-30.0 30.0)
           (-30.0 30.0)
  end
  begin
     id 14 
     name lowerneck
     direction 0.0374841 0.973033 0.227602   
     length 1.42765   
     axis 0 0 0   XYZ
    dof rx ry rz
    limits (-20.0 45.0)
           (-30.0 30.0)
           (-30.0 30.0)
  end
  begin
     id 15 
     name upperneck
     direction 0.00481585 0.989155 -0.146795   
     length 1.47593   
     axis 0 0 0   XYZ
    dof rx ry rz
    limits (-20.0 45.0)
           (-30.0 30.0)
           (-30.0 30.0)
  end
  begin
     id 16
     name head
     direction -0.00292522 0.997206 -0.0746423  
     length 1.48116  
     axis 0 0 0   XYZ
    dof rx ry rz
    limits (-20.0 45.0)
           (-30.0 30.0)
           (-30.0 30.0)
  end
  begin
     id 17 
     name lclavicle
     direction 0.951444 0.305606 0.0368784  
     length 3.01855  
     axis 0 0 0   XYZ
    dof ry rz
    limits (-20.0 10.0)
           (0.0 20.0)
  end
  begin
     id 18 
     name lhumerus
     direction 1 -4.48977e-011 2.61664e-027   
     length 5.52731   
     axis 180 -30 -90   XYZ
    dof rx ry rz
    limits (-60.0 90.0)
           (-90.0 90.0)
           (-90.0 90.0)
  end
  begin
     id 19
     name lradius
     direction 1 -4.48944e-011 8.22157e-027   
     length 3.11059   
     axis 180 -30 -90   XYZ
    dof rx
    limits (-10.0 170.0)
  end
  begin
     id 20
     name lwrist
     direction 1 -4.48976e-011 1.5779e-026   
     length 1.5553   
     axis -1.15221e-014 90 90   XYZ
    dof ry
    limits (-180.0 0.0)
 end
  begin
     id 21 
     name lhand
     direction 1 -4.49025e-011 3.1558e-026   
     length 0.419626   
     axis -2.01367e-014 90 90   XYZ
    dof rx rz
    limits (-90.0 90.0)
           (-45.0 45.0)
  end
  begin
     id 22 
     name lfingers
     direction 1 -4.4904e-011 6.31161e-026   
     length 0.338313   
     axis -4.02734e-014 90 90   XYZ
    dof rx
    limits (0.0 90.0)
  end
  begin
     id 23
     name lthumb
     direction 0.707107 -6.35004e-011 0.707107   
     length 0.485752   
     axis -90 45 2.85299e-015   XYZ
    dof rx rz
    limits (-45.0 45.0)
           (-45.0 45.0)
  end
  begin
     id 24 
     name rclavicle
     direction -0.968876 0.223791 0.105816   
     length 3.04177  
     axis 0 0 0   XYZ 
    dof ry rz
    limits (-10.0 20.0)
           (-20.0 0.0)
  end
  begin
     id 25 
     name rhumerus
     direction -1 -4.48962e-011 -1.01384e-027  
     length 5.25396   
     axis 180 30 90   XYZ
    dof rx ry rz
    limits (-90.0 60.0)
           (-90.0 90.0)
           (-90.0 90.0)
  end
  begin
     id 26 
     name rradius
     direction -1 -4.48955e-011 8.88542e-027   
     length 3.10567   
     axis 180 30 90   XYZ
    dof rx
    limits (-10.0 170.0)
  end
  begin
     id 27 
     name rwrist
     direction -1 -4.48994e-011 1.5779e-026   
     length 1.55283   
     axis -1.15221e-014 -90 -90   XYZ
    dof ry
    limits (-180.0 0.0)
  end
  begin
     id 28
     name rhand
     direction -1 -4.48891e-011 3.1558e-026   
     length 0.498676   
     axis -2.01367e-014 -90 -90   XYZ
    dof rx rz
    limits (-90.0 90.0)
           (-45.0 45.0)
  end
  begin
     id 29
     name rfingers
     direction -1 -4.48972e-011 6.31161e-026   
     length 0.402045   
     axis -4.02734e-014 -90 -90   XYZ
    dof rx
    limits (0.0 90.0)
  end
  begin
     id 30
     name rthumb
     direction -0.707107 -6.34849e-011 0.707107   
     length 0.577259   
     axis -90 -45 -2.85299e-015   XYZ
    dof rx rz
    limits (-45.0 45.0)
           (-45.0 45.0)
  end
:hierarchy
  begin
    root lhipjoint rhipjoint lowerback
    lhipjoint lfemur
    lfemur ltibia
    ltibia lfoot
    lfoot ltoes
    rhipjoint rfemur
    rfemur rtibia
    rtibia rfoot
    rfoot rtoes
    lowerback upperback
    upperback thorax
    thorax lowerneck lclavicle rclavicle
    lowerneck upperneck
    upperneck head
    lclavicle lhumerus
    lhumerus lradius
    lradius lwrist
    lwrist lhand lthumb
    lhand lfingers
    rclavicle rhumerus
    rhumerus rradius
    rradius rwrist
    rwrist rhand rthumb
    rhand rfingers
  end

#!OML:ASF H:\Pregnant\Project 1\Capture day 1\Session 1\femalepreg.ASF
:FULLY-SPECIFIED
:DEGREES
17
root 3.57778 9.18654 4.95214 -23.5171 -2.55193 -7.28077
lowerback 19.5725 3.12343 -8.31647
upperback 7.10664 2.54019 0.0809418
thorax -3.56408 1.17107 4.23522
lowerneck -24.2822 -6.50818 -6.52653
upperneck 26.7607 -9.37265 7.84222
head 13.8791 -3.66684 2.40992
rclavicle 8.0632e-015 2.06736e-014
rhumerus -13.0014 10.8621 -82.3793
rradius 98.0276
rwrist -40.8011
rhand 0.71711 -23.6595
rfingers 7.12502
rthumb 26.2771 -51.8597
lclavicle 8.0632e-015 2.06736e-014
lhumerus 0.960993 -23.3281 83.6448
lradius 94.4248
lwrist 50.4948
lhand -10.0981 13.6155
lfingers 7.12502
lthumb 15.8891 42.9837
rfemur -63.0221 -17.24 15.0496
rtibia 95.2274
rfoot -2.69931 -0.338901
rtoes -8.83754
lfemur -65.5271 15.9299 -0.609731
ltibia 89.1447
lfoot 3.76414 -18.3665
ltoes -10.7143
18
root 3.57236 9.1909 4.95965 -22.8531 -2.4215 -6.85098
lowerback 19.5247 3.12852 -8.56835
upperback 6.9055 2.48907 -0.0351527
thorax -3.75249 1.15783 4.26217
lowerneck -24.4626 -6.50051 -6.52758
upperneck 26.4473 -9.30404 7.80063
head 13.774 -3.64283 2.39929
rclavicle -1.84373e-014 -6.36111e-015
rhumerus -13.0073 10.979 -82.7056
rradius 98.1921
rwrist -40.442
rhand 0.756393 -23.6704
rfingers 7.12502
rthumb 26.3147 -51.865
lclavicle -1.84373e-014 -6.36111e-015
lhumerus 0.246508 -22.9285 83.8342
lradius 94.98
lwrist 50.7974
lhand -10.4068 13.4767
lfingers 7.12502
lthumb 15.5919 42.8682
rfemur -64.0206 -17.4205 14.8444
rtibia 95.3972
rfoot -2.60358 -0.235748
rtoes -8.98971
lfemur -66.1509 16.0946 -1.264
ltibia 89.0216
lfoot 3.78697 -18.2492
ltoes -10.7836
19
root 3.56717 9.19594 4.96807 -22.1466 -2.28423 -6.40142
lowerback 19.4359 3.12828 -8.84087
upperback 6.69485 2.43038 -0.153068
thorax -3.92933 1.14132 4.30148
lowerneck -24.6323 -6.49075 -6.51253
upperneck 26.1177 -9.23462 7.74757
head 13.6588 -3.619 2.38176
rclavicle 9.86469e-015 -3.18055e-015
rhumerus -13.0334 11.1303 -83.0289
rradius 98.3544
rwrist -40.0634
rhand 0.801706 -23.7037
rfingers 7.12502
rthumb 26.358 -51.8919
lclavicle 9.86469e-015 -3.18055e-015
lhumerus -0.501501 -22.5228 84.0223
lradius 95.5361
lwrist 51.1287
lhand -10.6907 13.3407
lfingers 7.12502
lthumb 15.3184 42.7533
rfemur -65.0735 -17.6297 14.6337
rtibia 95.5982
rfoot -2.5218 -0.104832
rtoes -9.10156
lfemur -66.8301 16.2499 -1.9545
ltibia 88.9079
lfoot 3.81123 -18.1152
ltoes -10.8563
20
root 3.5623 9.20157 4.97745 -21.4011 -2.14301 -5.93253
lowerback 19.3076 3.12275 -9.12737
upperback 6.47621 2.3655 -0.276122
thorax -4.09337 1.12227 4.34537
lowerneck -24.7943 -6.48204 -6.4728
upperneck 25.7775 -9.16969 7.673
head 13.5361 -3.59802 2.351
rclavicle 2.95941e-014 1.74931e-014
rhumerus -13.0761 11.31 -83.3522
rradius 98.513
rwrist -39.6751
rhand 0.84453 -23.7485
rfingers 7.12502
rthumb 26.399 -51.9305
lclavicle 2.95941e-014 1.74931e-014
lhumerus -1.27949 -22.1128 84.2029
lradius 96.0903
lwrist 51.4715
lhand -10.9237 13.2304
lfingers 7.12502
lthumb 15.094 42.6601
rfemur -66.1809 -17.8674 14.4198
rtibia 95.8353
rfoot -2.46711 0.0564613
rtoes -9.1051
lfemur -67.5582 16.3959 -2.67811
ltibia 88.8024
lfoot 3.82474 -17.9547
ltoes -10.9645
21
root 3.55762 9.20781 4.98778 -20.6166 -1.99518 -5.44442
lowerback 19.1419 3.11229 -9.43217
upperback 6.24864 2.29436 -0.401576
thorax -4.24669 1.10077 4.39909
lowerneck -24.9527 -6.47532 -6.43204
upperneck 25.4332 -9.10873 7.59876
head 13.4121 -3.57883 2.31979
rclavicle -1.97294e-014 9.54166e-015
rhumerus -13.1377 11.518 -83.671
rradius 98.6675
rwrist -39.2859
rhand 0.878653 -23.798
rfingers 7.12502
rthumb 26.4317 -51.9751
lclavicle -1.97294e-014 9.54166e-015
lhumerus -2.08568 -21.6939 84.3805
lradius 96.6335
lwrist 51.8097
lhand -11.0861 13.1363
lfingers 7.12502
lthumb 14.9376 42.5776
rfemur -67.3438 -18.1348 14.2024
rtibia 96.1066
rfoot -2.44393 0.254141
rtoes -8.97136
lfemur -68.3326 16.528 -3.43581
ltibia 88.7006
lfoot 3.82187 -17.764
ltoes -11.1111
